              ***********************************************

                PublicHash - Largest Bittorrent Community
      
                          http://publichash.com/
    
              ***********************************************

Thx Hive - CM8 Doing It Right The First Time

Iron.Man.3.2013.HDSCR.ULTRA.EDiTiON.720p.x264.LiNE.Hive-CM8

Video: 1280x520 @bitrate 4000 2pass
Audio: English AC3 2.0 Stereo (Line)
Sample: Yes, 3 included

SOURCES
Video: Chinese 720p HD Source + 2mins from SMY - thx
Audio: Goldenbear/Unique and Unknown - thx

General
Complete name: Iron.Man.3.2013.HDSCR.ULTRA.EDiTiON.720p.x264.LiNE.Hive-CM8.mkv
Format: Matroska
Format version: Version 2
File size: 3.98 GiB
Duration: 2h 10mn
Overall bit rate mode: Constant
Overall bit rate: 4 381 Kbps
Encoded date: UTC 2013-05-23 23:00:50
Writing application: mkvmerge v5.6.0 ('Kenya Kane') built on May 27 2012 16:44:04
Writing library: libebml v1.2.3 + libmatroska v1.3.0

Video
ID: 1
Format: AVC
Format/Info: Advanced Video Codec
Format profile: High@L5.1
Format settings, CABAC: No
Format settings, ReFrames: 1 frame
Format settings, GOP: M=1, N=33
Muxing mode: Header stripping
Codec ID: V_MPEG4/ISO/AVC
Duration: 2h 10mn
Bit rate mode: Constant
Bit rate: 4 000 Kbps
Width: 1 280 pixels
Height: 520 pixels
Display aspect ratio: 2.462
Frame rate mode: Constant
Frame rate: 29.970 fps
Standard: NTSC
Color space: YUV
Chroma subsampling: 4:2:0
Bit depth: 8 bits
Scan type: Progressive
Bits/(Pixel*Frame): 0.201
Stream size: 3.55 GiB (89%)
Language: English
Default: Yes
Forced: No
Color primaries: BT.709
Transfer characteristics: BT.709
Matrix coefficients: BT.709

Audio
ID: 2
Format: AC-3
Format/Info: Audio Coding 3
Mode extension: CM (complete main)
Format settings, Endianness: Big
Muxing mode: Header stripping
Codec ID: A_AC3
Duration: 2h 10mn
Bit rate mode: Constant
Bit rate: 384 Kbps
Channel(s): 2 channels
Channel positions: Front: L R
Sampling rate: 48.0 KHz
Bit depth: 16 bits
Compression mode: Lossy
Delay relative to video: -1ms
Stream size: 357 MiB (9%)
Default: Yes
Forced: No
IMDb: http://www.imdb.com/title/tt1300854/ 